<svg xmlns="http://www.w3.org/2000/svg" viewBox="0 0 204 188" shape-rendering="geometricPrecision" text-rendering="geometricPrecision"><path d="M0 94.878C.05 47.588 34.798 0 103.206 0c66.622 0 101.311 48.119 100.529 93.688-.907 52.826-36.12 80.152-67.664 89.977l-3.594-15.751c-1.883-8.257.354-15.624 6.194-20.83 7.552-6.733 12.044-15.057 14.383-26.569 2.473-12.17 1.311-25.526-4.177-38.867L130.219 29.18h-18.711l14.953 59.934c1.369 5.97-3.166 11.664-9.291 11.664L99 21.088H81.991l16.366 98.346c-10.251.92-14.044-5.727-14.896-10.536L73.025 34.622H55.748s.106 40.015.106 67.343c0 40.165 21.469 52.122 36.296 55.688 8.386 2.018 13.987 8.539 15.511 17.696L109.765 188C78.01 188.081-.088 176.262 0 94.878z" fill="#00645a"/></svg>