<?xml version="1.0" encoding="UTF-8"?><svg id="a" xmlns="http://www.w3.org/2000/svg" viewBox="0 0 492.21 419.01"><defs><style>.b{fill:#715430;}.b,.c{stroke-width:0px;}.c{fill:#fff;}</style></defs><path class="b" d="M274.3,0c25.47.19,50.28,4.15,74.54,11.78,15.9,5,31.1,11.61,45.56,19.87,12.86,7.35,24.9,15.88,35.96,25.78,8.88,7.95,17.09,16.54,24.4,25.94,5.96,7.67,11.47,15.67,15.96,24.32,2.22,4.29,3.69,8.8,3.63,13.73-.1,8.3-5.57,14.76-13.75,16.28-8.14,1.51-14.5-1.67-19.62-7.62-2.13-2.47-3.81-5.4-5.38-8.28-6.84-12.51-14.67-24.35-23.81-35.28-14.38-17.2-31.04-31.75-50.52-43-17.48-10.1-36.13-16.95-55.97-20.51-6.92-1.24-13.89-2.16-20.93-2.35-4.57-.12-9.14-.4-13.7-.32-13.96.27-27.75,1.98-41.35,5.16-15.35,3.59-30.04,8.97-44.03,16.23-11.47,5.95-22.18,13.05-32.17,21.24-18,14.76-32.57,32.41-43.98,52.66-6.27,11.13-11.29,22.81-15.22,34.97-.32,1-.72,1.99-1.22,2.91-1.82,3.35-5.04,4.9-8.82,4.35-4.09-.59-5.96-3.34-5.53-8.22.23-2.63.94-5.27,1.79-7.78,6.22-18.36,14.74-35.62,25.61-51.66,14.87-21.96,33.13-40.61,55.06-55.61,19.07-13.04,39.79-22.42,62.14-28.17,10.36-2.67,20.88-4.57,31.57-5.3,6.59-.45,13.19-.76,19.78-1.13h0Z"/><path class="b" d="M292.41,410.49c-.69-2.53-2.44-3.86-5.34-3.86-1.89,0-3.78.3-5.68.35-14.23.42-28.38-.26-42.43-2.83-20.67-3.79-40.16-10.78-58.5-21.01-12.77-7.12-24.56-15.6-35.41-25.42-11.48-10.39-21.62-21.93-30.38-34.69-5.95-8.66-11.14-17.76-15.61-27.26-2.08-4.42-5.52-5.48-9.94-4.3-2.76.74-4.17,2.69-4.3,5.56-.08,1.95.33,3.76,1.17,5.51,4.78,9.98,10.31,19.54,16.63,28.61,10.59,15.2,22.92,28.83,37.15,40.73,14.5,12.13,30.34,22.13,47.61,29.8,26.53,11.78,54.33,17.64,83.37,17.29,3.8,0,7.6.1,11.39-.03,2.68-.1,5.3-.7,7.64-2.14,2.33-1.43,3.32-3.83,2.64-6.31h-.01Z"/><path class="c" d="M234.75,269.75v2.54h-34.91c-.05-.81-.09-1.6-.15-2.59,1.22-.22,2.3-.39,3.38-.62.89-.19,1.79-.38,2.65-.69,3.69-1.33,4.85-2.77,4.92-6.67.19-10.62.29-21.25.41-31.87,0-.48-.08-.95-.14-1.57h-41.3c-.04.85-.1,1.6-.1,2.35,0,8.73-.02,17.45.02,26.18,0,1.9.26,3.79.31,5.69.08,2.61,1.41,4.42,3.66,5.47,1.69.79,3.54,1.27,5.47,1.93v2.12c-1.67.55-31.33.63-33.63.08v-2.26c.47-.18.91-.38,1.36-.53.6-.19,1.23-.32,1.83-.51,5.19-1.69,6.67-3.54,6.82-9,.22-7.87.42-15.75.47-23.63.07-13.16.03-26.32,0-39.48,0-1.82-.26-3.64-.41-5.46-.23-2.83-1.79-4.71-4.34-5.71-1.75-.69-3.6-1.11-5.5-1.67v-2.53h33.94v2.62c-.94.24-1.87.49-2.81.72-4.42,1.09-6.75,3.87-6.82,8.41-.16,9.57-.25,19.14-.37,28.7v1.83c1.61.55,37.22.77,41.38.27.05-.55.16-1.15.17-1.76,0-6.69.07-13.37-.04-20.06-.07-3.72-.24-7.46-.76-11.13-.48-3.34-2.62-5.52-6.03-6.24-1.23-.26-2.48-.45-3.96-.71-.04-.78-.07-1.58-.1-2.33,1.69-.62,31.85-.75,34.31-.18v2.44c-1.24.37-2.39.67-3.51,1.06-3.4,1.2-5.67,3.32-5.84,7.17-.08,1.82-.32,3.64-.32,5.47,0,19.92,0,39.83.04,59.75,0,1.96.2,3.93.4,5.89.23,2.23,1.53,3.79,3.48,4.69,1.33.61,2.79.92,4.2,1.34.59.18,1.19.3,1.84.46l-.02.02Z"/><path class="c" d="M419.2,183.99v-2.34c1.6-.61,59.19-.76,61.79-.15,2.54,7.01,5.12,14.13,7.76,21.39-.77.47-1.4.86-2.26,1.38-.8-1.01-1.49-1.95-2.26-2.83-3.01-3.43-5.95-6.94-9.11-10.23-2.94-3.07-6.53-5.05-10.85-5.59-6.78-.84-13.55-1.46-20.64-.37-.15,1.08-.45,2.23-.46,3.39-.06,11.33-.08,22.66-.1,33.99,0,.35.08.69.12.99.16.13.26.3.37.3,4.83-.14,9.7.08,14.35-1.63,3.89-1.43,6.5-4.13,7.81-8.02.67-1.99,1.12-4.06,1.67-6.09.18-.67.36-1.34.58-2.11h2.7v40.48h-2.66c-.63-1.95-1.18-3.91-1.9-5.8-.75-1.97-1.58-3.91-2.53-5.79-1.87-3.71-5-5.86-9.03-6.6-3.67-.67-7.38-.83-11.32-.53-.07.72-.2,1.39-.2,2.06.02,9.22.02,18.44.13,27.66.03,2.16.44,4.33.7,6.49.27,2.3,1.79,3.47,3.86,3.92,4.57.97,9.2,1.19,13.85.8,2.38-.2,4.77-.43,7.11-.88,5.54-1.05,9.81-4.23,13.07-8.65,2.46-3.33,4.51-6.96,6.73-10.46.41-.65.75-1.33,1.23-2.19.75.21,1.46.4,2.5.68-1.65,8.5-3.78,16.74-5.63,25.05h-68.34v-2.44c.48-.18.92-.38,1.37-.52.87-.28,1.76-.48,2.62-.79,3.42-1.23,5.86-3.27,6.11-7.22.13-2.1.59-4.19.61-6.28.17-14.85.31-29.69.37-44.54.02-5.7-.19-11.39-.36-17.09-.04-1.33-.25-2.66-.55-3.96-.54-2.36-2.2-3.71-4.43-4.35-1.48-.43-3-.7-4.79-1.1v-.03Z"/><path class="c" d="M297.61,206.06h2.64v40.48h-2.51c-.19-.51-.37-1.02-.56-1.53-1.24-3.28-2.3-6.65-3.78-9.82-2.13-4.55-6.07-6.67-10.96-7.1-2.59-.22-5.19-.28-7.79-.39-.61-.02-1.23.07-2.01.13-.04.86-.1,1.61-.1,2.37,0,6.19-.08,12.39.05,18.58.1,4.71.39,9.41.77,14.1.27,3.38,1.27,4.39,4.57,5.13,4.43.99,8.93,1.07,13.43.72,2.38-.18,4.77-.43,7.11-.89,6.18-1.21,10.58-5.07,14.07-10.04,2.05-2.93,3.8-6.08,5.67-9.14.4-.65.75-1.33,1.21-2.15.86.28,1.62.52,2.59.83-1.93,8.38-3.81,16.58-5.73,24.93h-68.25c-.05-.78-.09-1.57-.14-2.44.67-.22,1.2-.37,1.71-.56,1.39-.5,2.8-.94,4.14-1.55,2.32-1.06,3.84-2.84,4.15-5.45.35-2.93.84-5.87.86-8.8.09-19.21.09-38.43.06-57.64,0-2.02-.36-4.05-.65-6.06-.37-2.51-2.03-3.95-4.35-4.65-1.54-.46-3.13-.74-4.86-1.14v-2.42c1.6-.51,58.86-.64,61.72-.11,2.54,7.01,5.14,14.18,7.76,21.4-.5.37-.81.64-1.16.85-.29.18-.63.29-1.15.54-.68-.87-1.37-1.72-2.02-2.6-3.11-4.19-6.47-8.14-10.46-11.55-2.87-2.46-6.06-4.04-9.81-4.49-6.36-.76-12.72-1.37-19.13-.57-.28.03-.54.12-1.18.27-1.17,12.73-.9,25.56-.94,38.59.73.07,1.34.21,1.93.17,3.29-.24,6.62-.29,9.86-.85,5.92-1.01,9.93-4.41,11.57-10.32.62-2.22,1.12-4.48,1.7-6.82h-.03Z"/><path class="c" d="M46.57,185.44c.97-1.36,1.86-2.61,2.77-3.89h2.22c.6,2.03.57,22.47-.05,24.39h-2.2c-.99-2.38-1.88-4.75-2.96-7.02-2.23-4.68-5.08-8.87-9.26-12.12-6.07-4.73-15.17-3.69-19.62.21-2.9,2.54-4.47,5.76-5.03,9.48-.25,1.65-.25,3.36-.21,5.03.14,6.53,3.89,10.75,9.34,13.48,4.39,2.2,9.08,3.78,13.59,5.74,3.22,1.4,6.55,2.67,9.49,4.53,6.36,4.02,9.94,9.92,10.88,17.46.79,6.27.04,12.21-3.13,17.73-3.77,6.58-9.6,10.34-16.89,11.91-6.98,1.51-14,1.4-20.9-.41-3.03-.79-5.89-2.21-9.2-3.48-.79,1.04-1.78,2.36-2.85,3.76H.44c-.15-8.72-.29-17.38-.44-26.24,1.02-.08,1.68-.13,2.43-.19.33.85.63,1.55.89,2.26,1.84,5.14,4.26,9.98,7.81,14.15,5.21,6.12,11.83,8.7,19.79,7.08,7.1-1.45,12.06-7.33,12.5-14.59.12-2.02.15-4.11-.19-6.1-.82-4.87-3.75-8.32-8.13-10.37-4.52-2.11-9.16-3.96-13.79-5.83-4.11-1.66-8.34-3.11-11.7-6.15-6.61-6-9.73-13.42-8.96-22.41.28-3.26.89-6.41,2.25-9.38,2.84-6.2,7.47-10.57,13.91-12.77,8.91-3.04,17.71-2.59,26.21,1.63,1.13.56,2.17,1.28,3.53,2.1h.02Z"/><path class="c" d="M278.21,154.67c5.13,7.17,10.27,14.36,15.52,21.72-.89.66-1.59,1.18-2.44,1.81-6.82-6.34-13.66-12.44-20.12-18.69,1.03-3.32,3.25-4.82,7.03-4.83h.01Z"/><path class="c" d="M413.16,269.36c-4.41-.8-8.1-2.93-10.85-6.4-2.44-3.07-4.59-6.38-6.77-9.66-5.33-7.99-9.29-16.88-16.04-24.22.82-.38,1.46-.66,2.09-.97,7.98-3.91,13.57-9.73,14.77-18.91,1.63-12.52-4.61-22.75-16.21-26.51-4.76-1.54-9.71-1.53-14.61-1.58-10.76-.11-21.52,0-32.29.03-.74,0-1.48.15-2.43.25.07,1,.12,1.78.17,2.59,1.71.41,3.24.68,4.71,1.14,2.97.91,4.81,2.84,5.04,6.04.19,2.52.44,5.04.45,7.57.06,11.61.11,23.22.03,34.82-.06,8.72-.2,17.44-.52,26.15-.2,5.38-.95,7.41-7.32,9.2-1,.28-2.01.56-3.15.88.05.91.09,1.7.14,2.52h36.4v-2.67c-.98-.13-1.8-.24-2.62-.33-5.21-.61-8.76-4.16-8.85-9.05-.17-9.07-.27-18.14-.39-27.21,0-.75.07-1.5.11-2.2,3.63-.7,6.77.32,9.59,3.03,3.84,3.68,6.95,7.95,9.75,12.42,4.37,6.97,8.45,14.12,12.73,21.14,1.08,1.78,2.44,3.39,3.51,4.87h23.68v-2.54c-.46-.17-.78-.34-1.11-.4h-.01ZM376.12,220.81c-1.27,1.18-2.75,2.22-4.29,3.01-5.21,2.65-10.88,3.01-16.9,3.12-.13-14.07.09-27.88.62-41.58,10.7-2.45,24.08,2.03,26.32,15.65,1.21,7.34.08,14.37-5.75,19.81h0Z"/><path class="c" d="M134.92,204.52c-1.2-10.72-8.15-19-18.55-21.92-4.51-1.26-9.13-1.57-13.78-1.56-10.76.02-21.52.06-32.29.11-.68,0-1.36.11-2.17.18v2.61c2.24.55,4.37.98,6.45,1.6,2.42.73,3.96,2.38,4.29,4.95.23,1.81.48,3.63.49,5.45.04,15.62.08,31.23.02,46.85-.02,5.83-.24,11.67-.46,17.49-.19,5.02-1.7,6.89-6.46,8.38-.8.25-1.63.41-2.44.65-.52.15-1.01.38-1.61.61.06.86.11,1.59.17,2.41h36.35v-2.76c-.98-.1-1.75-.16-2.5-.27-5.17-.77-9.05-3.55-8.98-9.74.05-4.22-.25-8.43-.31-12.65-.06-3.78-.01-7.57-.01-11.65,1.12-.05,1.88-.07,2.64-.12,5.11-.37,10.24-.58,15.32-1.17,5.85-.68,11.19-2.84,15.6-6.84,6.69-6.06,9.24-13.69,8.24-22.62h0ZM115.53,224.27c-2.99,3.69-7.17,5.69-11.76,6.5-3.36.59-6.82.62-10.17.89-1.03-2.95-.27-43.61.85-46.54.56-.14,1.23-.48,1.89-.45,3.15.13,6.35.04,9.42.61,6.44,1.2,10.9,5.33,13.41,11.13,4.29,9.89,3.23,19.37-3.65,27.86h.01Z"/></svg>