<?xml version="1.0" encoding="UTF-8"?><svg id="a" xmlns="http://www.w3.org/2000/svg" viewBox="0 0 492.22 419"><defs><style>.b{fill:#b08d20;}.b,.c,.d{stroke-width:0px;}.c{fill:#715430;}.d{fill:#242021;}</style></defs><path class="c" d="M274.3,0c25.47.19,50.28,4.15,74.54,11.78,15.9,5,31.1,11.61,45.56,19.87,12.86,7.35,24.9,15.88,35.96,25.78,8.88,7.95,17.09,16.54,24.4,25.94,5.96,7.67,11.47,15.67,15.96,24.32,2.22,4.29,3.69,8.8,3.63,13.73-.1,8.3-5.57,14.76-13.75,16.28-8.14,1.51-14.5-1.67-19.62-7.62-2.13-2.47-3.81-5.4-5.38-8.28-6.84-12.51-14.67-24.35-23.81-35.28-14.38-17.2-31.04-31.75-50.52-43-17.48-10.1-36.13-16.95-55.97-20.51-6.92-1.24-13.89-2.16-20.93-2.35-4.57-.12-9.14-.4-13.7-.32-13.96.27-27.75,1.98-41.35,5.16-15.35,3.59-30.04,8.97-44.03,16.23-11.47,5.95-22.18,13.05-32.17,21.24-18,14.76-32.57,32.41-43.98,52.66-6.27,11.13-11.29,22.81-15.22,34.97-.32,1-.72,1.99-1.22,2.91-1.82,3.35-5.04,4.9-8.82,4.35-4.09-.59-5.96-3.34-5.53-8.22.23-2.63.94-5.27,1.79-7.78,6.22-18.36,14.74-35.62,25.61-51.66,14.87-21.96,33.13-40.61,55.06-55.61,19.07-13.04,39.79-22.42,62.14-28.17,10.36-2.67,20.88-4.57,31.57-5.3,6.59-.45,13.19-.76,19.78-1.13Z"/><path class="c" d="M292.41,410.48c-.69-2.53-2.44-3.86-5.34-3.86-1.89,0-3.78.3-5.68.35-14.23.42-28.38-.26-42.43-2.83-20.67-3.79-40.16-10.78-58.5-21.01-12.77-7.12-24.56-15.6-35.41-25.42-11.48-10.39-21.62-21.93-30.38-34.69-5.95-8.66-11.14-17.76-15.61-27.26-2.08-4.42-5.52-5.48-9.94-4.3-2.76.74-4.17,2.69-4.3,5.56-.08,1.95.33,3.76,1.17,5.51,4.78,9.98,10.31,19.54,16.63,28.61,10.59,15.2,22.92,28.83,37.15,40.73,14.5,12.13,30.34,22.13,47.61,29.8,26.53,11.78,54.33,17.64,83.37,17.29,3.8,0,7.6.1,11.39-.03,2.68-.1,5.3-.7,7.64-2.14,2.33-1.43,3.32-3.83,2.64-6.31Z"/><path class="d" d="M234.75,269.74v2.54h-34.91c-.05-.81-.09-1.6-.15-2.59,1.22-.22,2.3-.39,3.38-.62.89-.19,1.79-.38,2.65-.69,3.69-1.33,4.85-2.77,4.92-6.67.19-10.62.29-21.25.41-31.87,0-.48-.08-.95-.14-1.57h-41.3c-.04.85-.1,1.6-.1,2.35,0,8.73-.02,17.45.02,26.18,0,1.9.26,3.79.31,5.69.08,2.61,1.41,4.42,3.66,5.47,1.69.79,3.54,1.27,5.47,1.93v2.12c-1.67.55-31.33.63-33.63.08v-2.26c.47-.18.91-.38,1.36-.53.6-.19,1.23-.32,1.83-.51,5.19-1.69,6.67-3.54,6.82-9,.22-7.87.42-15.75.47-23.63.07-13.16.03-26.32,0-39.48,0-1.82-.26-3.64-.41-5.46-.23-2.83-1.79-4.71-4.34-5.71-1.75-.69-3.6-1.11-5.5-1.67v-2.53h33.94v2.62c-.94.24-1.87.49-2.81.72-4.42,1.09-6.75,3.87-6.82,8.41-.16,9.57-.25,19.14-.37,28.7,0,.63,0,1.26,0,1.83,1.61.55,37.22.77,41.38.27.05-.55.16-1.15.17-1.76,0-6.69.07-13.37-.04-20.06-.07-3.72-.24-7.46-.76-11.13-.48-3.34-2.62-5.52-6.03-6.24-1.23-.26-2.48-.45-3.96-.71-.04-.78-.07-1.58-.1-2.33,1.69-.62,31.85-.75,34.31-.18v2.44c-1.24.37-2.39.67-3.51,1.06-3.4,1.2-5.67,3.32-5.84,7.17-.08,1.82-.32,3.64-.32,5.47,0,19.92,0,39.83.04,59.75,0,1.96.2,3.93.4,5.89.23,2.23,1.53,3.79,3.48,4.69,1.33.61,2.79.92,4.2,1.34.59.18,1.19.3,1.84.46Z"/><path class="d" d="M419.2,183.98v-2.34c1.6-.61,59.19-.76,61.79-.15,2.54,7.01,5.12,14.13,7.76,21.39-.77.47-1.4.86-2.26,1.38-.8-1.01-1.49-1.95-2.26-2.83-3.01-3.43-5.95-6.94-9.11-10.23-2.94-3.07-6.53-5.05-10.85-5.59-6.78-.84-13.55-1.46-20.64-.37-.15,1.08-.45,2.23-.46,3.39-.06,11.33-.08,22.66-.1,33.99,0,.35.08.69.12.99.16.13.26.3.37.3,4.83-.14,9.7.08,14.35-1.63,3.89-1.43,6.5-4.13,7.81-8.02.67-1.99,1.12-4.06,1.67-6.09.18-.67.36-1.34.58-2.11h2.7v40.48h-2.66c-.63-1.95-1.18-3.91-1.9-5.8-.75-1.97-1.58-3.91-2.53-5.79-1.87-3.71-5-5.86-9.03-6.6-3.67-.67-7.38-.83-11.32-.53-.07.72-.2,1.39-.2,2.06.02,9.22.02,18.44.13,27.66.03,2.16.44,4.33.7,6.49.27,2.3,1.79,3.47,3.86,3.92,4.57.97,9.2,1.19,13.85.8,2.38-.2,4.77-.43,7.11-.88,5.54-1.05,9.81-4.23,13.07-8.65,2.46-3.33,4.51-6.96,6.73-10.46.41-.65.75-1.33,1.23-2.19.75.21,1.46.4,2.5.68-1.65,8.5-3.78,16.74-5.63,25.05h-68.34v-2.44c.48-.18.92-.38,1.37-.52.87-.28,1.76-.48,2.62-.79,3.42-1.23,5.86-3.27,6.11-7.22.13-2.1.59-4.19.61-6.28.17-14.85.31-29.69.37-44.54.02-5.7-.19-11.39-.36-17.09-.04-1.33-.25-2.66-.55-3.96-.54-2.36-2.2-3.71-4.43-4.35-1.48-.43-3-.7-4.79-1.1Z"/><path class="d" d="M297.61,206.05h2.64v40.48h-2.51c-.19-.51-.37-1.02-.56-1.53-1.24-3.28-2.3-6.65-3.78-9.82-2.13-4.55-6.07-6.67-10.96-7.1-2.59-.22-5.19-.28-7.79-.39-.61-.02-1.23.07-2.01.13-.04.86-.1,1.61-.1,2.37,0,6.19-.08,12.39.05,18.58.1,4.71.39,9.41.77,14.1.27,3.38,1.27,4.39,4.57,5.13,4.43.99,8.93,1.07,13.43.72,2.38-.18,4.77-.43,7.11-.89,6.18-1.21,10.58-5.07,14.07-10.04,2.05-2.93,3.8-6.08,5.67-9.14.4-.65.75-1.33,1.21-2.15.86.28,1.62.52,2.59.83-1.93,8.38-3.81,16.58-5.73,24.93h-68.25c-.05-.78-.09-1.57-.14-2.44.67-.22,1.2-.37,1.71-.56,1.39-.5,2.8-.94,4.14-1.55,2.32-1.06,3.84-2.84,4.15-5.45.35-2.93.84-5.87.86-8.8.09-19.21.09-38.43.06-57.64,0-2.02-.36-4.05-.65-6.06-.37-2.51-2.03-3.95-4.35-4.65-1.54-.46-3.13-.74-4.86-1.14v-2.42c1.6-.51,58.86-.64,61.72-.11,2.54,7.01,5.14,14.18,7.76,21.4-.5.37-.81.64-1.16.85-.29.18-.63.29-1.15.54-.68-.87-1.37-1.72-2.02-2.6-3.11-4.19-6.47-8.14-10.46-11.55-2.87-2.46-6.06-4.04-9.81-4.49-6.36-.76-12.72-1.37-19.13-.57-.28.03-.54.12-1.18.27-1.17,12.73-.9,25.56-.94,38.59.73.07,1.34.21,1.93.17,3.29-.24,6.62-.29,9.86-.85,5.92-1.01,9.93-4.41,11.57-10.32.62-2.22,1.12-4.48,1.7-6.82Z"/><path class="d" d="M46.57,185.43c.97-1.36,1.86-2.61,2.77-3.89h2.22c.6,2.03.57,22.47-.05,24.39h-2.2c-.99-2.38-1.88-4.75-2.96-7.02-2.23-4.68-5.08-8.87-9.26-12.12-6.07-4.73-15.17-3.69-19.62.21-2.9,2.54-4.47,5.76-5.03,9.48-.25,1.65-.25,3.36-.21,5.03.14,6.53,3.89,10.75,9.34,13.48,4.39,2.2,9.08,3.78,13.59,5.74,3.22,1.4,6.55,2.67,9.49,4.53,6.36,4.02,9.94,9.92,10.88,17.46.79,6.27.04,12.21-3.13,17.73-3.77,6.58-9.6,10.34-16.89,11.91-6.98,1.51-14,1.4-20.9-.41-3.03-.79-5.89-2.21-9.2-3.48-.79,1.04-1.78,2.36-2.85,3.76H.44c-.15-8.72-.29-17.38-.44-26.24,1.02-.08,1.68-.13,2.43-.19.33.85.63,1.55.89,2.26,1.84,5.14,4.26,9.98,7.81,14.15,5.21,6.12,11.83,8.7,19.79,7.08,7.1-1.45,12.06-7.33,12.5-14.59.12-2.02.15-4.11-.19-6.1-.82-4.87-3.75-8.32-8.13-10.37-4.52-2.11-9.16-3.96-13.79-5.83-4.11-1.66-8.34-3.11-11.7-6.15-6.61-6-9.73-13.42-8.96-22.41.28-3.26.89-6.41,2.25-9.38,2.84-6.2,7.47-10.57,13.91-12.77,8.91-3.04,17.71-2.59,26.21,1.63,1.13.56,2.17,1.28,3.53,2.1Z"/><path class="d" d="M278.21,154.66c5.13,7.17,10.27,14.36,15.52,21.72-.89.66-1.59,1.18-2.44,1.81-6.82-6.34-13.66-12.44-20.12-18.69,1.03-3.32,3.25-4.82,7.03-4.83Z"/><path class="b" d="M426.95,305.06c-2.28.38-4.56.19-6.85.08l-.14-.43c.56-.42,1.12-.85,1.8-1.36v-14.46c-.72-.41-1.37-.79-2.04-1.17,1.3-.8,5.28-.82,7.02.01-.66.38-1.24.72-2.01,1.16v6.07h10.46v-6.11c-.68-.41-1.3-.78-1.93-1.16,2.35-.64,4.61-.67,6.87-.4.02.14.05.28.07.43-.58.32-1.15.65-1.99,1.11-.37,4.84-.29,9.77-.05,14.6.88.48,1.51.83,2.15,1.18-.03.15-.05.3-.08.45-2.28.34-4.57.21-6.86.04-.05-.14-.1-.29-.14-.43.6-.37,1.19-.74,1.97-1.22v-6.91c-3.41-.12-6.8-.07-10.43-.01-.38,2.5-.51,4.81.17,7.07.78.38,1.43.7,2.08,1.02-.02.15-.05.29-.07.44Z"/><path class="b" d="M242.81,303.46c.58.47,1.06.86,1.87,1.52-2.21.4-4.05.42-6.33-.05.83-.66,1.3-1.03,1.9-1.5,0-1.73.07-3.55-.02-5.37-.08-1.71-1.07-2.51-2.77-2.45-1.77.06-2.5.78-2.54,2.62-.04,1.75,0,3.5,0,5.19.65.47,1.15.83,1.67,1.21-1.31.77-3.14.85-5.89.2.65-.49,1.15-.88,1.93-1.48,0-.75,0-1.72,0-2.69,0-2.88.01-5.77,0-8.65,0-1.66.35-3.4-1.53-4.84,1.43-.51,2.43-.87,3.76-1.34v9.2c.87-.29,1.43-.48,1.99-.67,3.6-1.2,5.84.32,5.95,4.08.05,1.68,0,3.37,0,5.03Z"/><path class="b" d="M228.62,291.74c-.24-.3-.53-.57-.7-.91-1-1.99-2.68-2.75-4.81-2.84-2.72-.11-5.2.42-7.01,2.64-2.05,2.5-2.18,7.13-.36,10.17,1.56,2.61,5.17,4.14,8.46,3.51,1.57-.3,2.89-1.07,3.83-2.41.3-.43.65-.82,1.07-1.34.46,1.61.42,1.77-.87,4.04-4.11,1.13-8.34,1.49-12.45-.73-3.08-1.66-4.57-4.37-4.52-7.78.05-3.44,1.79-6.01,4.8-7.65,4.03-2.2,8.22-1.97,12.71-.71.13,1.27.25,2.55.38,3.82-.17.06-.35.12-.52.19Z"/><path class="b" d="M375.61,303.67c.87.36,1.5.61,2.14.87-.02.17-.03.34-.05.51-2.49.33-4.99.32-7.48,0-.03-.15-.05-.3-.08-.45.65-.33,1.31-.65,1.93-.97,2.12-3.79-2.39-13.25-6.54-15.92,1.19-.69,3.78-.82,6.39-.24-.46.49-.84.89-1.35,1.44,1.18,2.25,2.37,4.52,3.77,7.21,1.87-2.46,3.02-4.9,4.41-7.28-.52-.42-.94-.75-1.33-1.06.12-.79,3.01-.91,5.72-.18-3.45,1.38-4.39,4.54-6.17,7.02-2,2.78-2.25,5.8-1.35,9.06Z"/><path class="b" d="M294.37,287.03c-.16,1.24-.32,2.45-.51,3.93-1.27-.86-1.49-2.59-3.13-2.51-1.32.07-2.64.01-4.15.01v15.07c.84.39,1.58.73,2.4,1.11-1.46.75-5.84.84-8.15.11.96-.44,1.66-.76,2.67-1.23.57-4.78.14-9.73.24-14.61-2.96-1.12-4.71-.67-7.59,1.91-.39-1.62.5-2.83.76-4.06,5.77.72,11.43.31,17.46.26Z"/><path class="b" d="M416.35,287.61c.13,1.09.24,2.06.35,3.03-.15.05-.3.11-.45.16-.3-.32-.66-.61-.89-.97-.93-1.49-2.3-1.95-3.97-1.82-1.07.08-2.1.48-2.3,1.5-.19.94-.07,2.13.38,2.95.43.78,1.46,1.25,2.25,1.81,1.19.85,2.48,1.59,3.61,2.52,1.73,1.42,2,3.39,1.34,5.37-.66,1.98-2.33,2.98-4.35,3.16-1.45.13-2.97.1-4.39-.17-2.06-.4-2.79-2.11-1.98-4.66.49.74.84,1.28,1.21,1.82.99,1.45,2.38,2.12,4.12,2.09,1.37-.02,2.45-.5,3.02-1.85.59-1.41.24-2.66-.8-3.65-.7-.67-1.6-1.13-2.4-1.7-1.09-.77-2.3-1.41-3.22-2.34-2.52-2.56-1.69-6.16,1.65-7.48,2.2-.87,4.37-.66,6.82.24Z"/><path class="b" d="M322.25,294.46c.86-.09,1.86-.2,3.26-.36v8.54c2.07,1.67,2.72,1.68,5.01.22v-6.75c-.24-.32-.6-.79-1.2-1.59,1.4-.16,2.47-.28,3.86-.43v9.31c.8.31,1.35.52,1.89.73.02.14.04.29.05.43-1.22.36-2.43.72-3.67,1.08-.47-.39-.88-.74-1.17-.98-1.33.26-2.47.65-3.64.69-2.47.1-3.48-.9-3.59-3.34-.05-1.26.08-2.54-.04-3.79-.11-1.13-.45-2.24-.77-3.75Z"/><path class="b" d="M263.21,305.07h-6.14c.8-.69,1.23-1.07,1.74-1.51v-7.41c-.37-.23-.77-.49-1.29-.82.42-.45.82-.88,1.27-1.37.19-1.05.34-2.17.6-3.25.79-3.2,3.47-5.21,6.43-4.86,1.12.13,2.03.51,2.24,1.79-.58,1.03-1.3.87-2.15.42-2.54-1.34-3.94-.68-4.32,2.14-.17,1.22-.03,2.48-.03,3.88.75.08,1.36.11,1.96.21.55.09,1.08.25,1.63.38,0,.22-.02.43-.02.65-1.1.18-2.2.37-3.49.58v7.71c.57.33,1.14.67,1.72,1-.05.15-.11.3-.16.45Z"/><path class="b" d="M442.72,304.62c.71-.36,1.3-.66,1.9-.96.6-1.58.72-12.4.14-14.91-.58-.33-1.22-.69-1.93-1.08,1.58-.71,5.44-.73,7.25,0-.69.37-1.27.69-2.22,1.21-.23,4.78-.19,9.71,0,14.53.89.53,1.52.91,2.23,1.34-1.86.76-5.65.71-7.37-.11Z"/><path class="b" d="M336.13,294.44h5.09c-.54.65-.87,1.05-1.32,1.6.72,1.83,1.46,3.69,2.19,5.55.16,0,.32.01.48.02.83-1.81,1.67-3.61,2.51-5.45-.42-.53-.75-.95-1.19-1.52,1.61-.58,3.1-.45,5.06-.01-2.81,1.44-3.44,4-4.63,6.15-1.6,2.88-3.01,5.87-4.52,8.8-.29.56-.55,1.22-1.02,1.56-.44.33-1.24.55-1.71.36-.45-.18-.68-.93-1.1-1.58,1.12-.46,1.89-.77,2.85-1.16.61-1.16,1.3-2.44,2.02-3.81-1.09-2.82-2.11-5.58-3.24-8.29-.34-.81-.98-1.48-1.48-2.21Z"/><path class="b" d="M312.52,304.59c-.11-.82-.22-1.72-.34-2.63.15-.06.31-.13.46-.19.3.31.61.6.9.92.37.41.65.94,1.09,1.25.97.71,2.31.55,2.85-.24.53-.78.25-1.74-.8-2.51-.74-.54-1.56-.95-2.31-1.47-1.12-.79-1.73-1.84-1.45-3.26.29-1.46,1.36-2.17,2.68-2.32,1.2-.14,2.44.06,3.83.12.12.98.2,1.65.28,2.32-.14.05-.28.1-.42.15-.5-.45-1.01-.9-1.53-1.37-1.22-.27-2.39-.46-2.94,1.51.59.49,1.23,1.07,1.93,1.59.68.5,1.49.84,2.1,1.4,1.9,1.73,1.38,4.39-1.04,5.18-1.69.55-3.43.63-5.3-.44Z"/><path class="b" d="M304.96,296.17c-.5-.36-.88-.64-1.28-.93,1.18-.93,2.16-1.7,3.25-2.56.36.51.7.99,1.01,1.43,1.06.44,2.39-.21,3.26.69,0,.19-.01.39-.02.58-1.11.16-2.22.32-3.6.52,0,2.23-.07,4.45.03,6.66.05.96.84,1.41,1.81,1.4.52,0,1.04-.07,1.7-.12-1.14,1.44-2.74,1.92-4.34,1.41-1.37-.43-1.77-1.55-1.81-2.8-.06-2.03-.02-4.07-.02-6.28Z"/><path class="d" d="M413.16,269.35c-4.41-.8-8.1-2.93-10.85-6.4-2.44-3.07-4.59-6.38-6.77-9.66-5.33-7.99-9.29-16.88-16.04-24.22.82-.38,1.46-.66,2.09-.97,7.98-3.91,13.57-9.73,14.77-18.91,1.63-12.52-4.61-22.75-16.21-26.51-4.76-1.54-9.71-1.53-14.61-1.58-10.76-.11-21.52,0-32.29.03-.74,0-1.48.15-2.43.25.07,1,.12,1.78.17,2.59,1.71.41,3.24.68,4.71,1.14,2.97.91,4.81,2.84,5.04,6.04.19,2.52.44,5.04.45,7.57.06,11.61.11,23.22.03,34.82-.06,8.72-.2,17.44-.52,26.15-.2,5.38-.95,7.41-7.32,9.2-1,.28-2.01.56-3.15.88.05.91.09,1.7.14,2.52h36.4v-2.67c-.98-.13-1.8-.24-2.62-.33-5.21-.61-8.76-4.16-8.85-9.05-.17-9.07-.27-18.14-.39-27.21,0-.75.07-1.5.11-2.2,3.63-.7,6.77.32,9.59,3.03,3.84,3.68,6.95,7.95,9.75,12.42,4.37,6.97,8.45,14.12,12.73,21.14,1.08,1.78,2.44,3.39,3.51,4.87h23.68v-2.54c-.46-.17-.78-.34-1.11-.4ZM376.12,220.8c-1.27,1.18-2.75,2.22-4.29,3.01-5.21,2.65-10.88,3.01-16.9,3.12-.13-14.07.09-27.88.62-41.58,10.7-2.45,24.08,2.03,26.32,15.65,1.21,7.34.08,14.37-5.75,19.81Z"/><path class="d" d="M134.92,204.51c-1.2-10.72-8.15-19-18.55-21.92-4.51-1.26-9.13-1.57-13.78-1.56-10.76.02-21.52.06-32.29.11-.68,0-1.36.11-2.17.18v2.61c2.24.55,4.37.98,6.45,1.6,2.42.73,3.96,2.38,4.29,4.95.23,1.81.48,3.63.49,5.45.04,15.62.08,31.23.02,46.85-.02,5.83-.24,11.67-.46,17.49-.19,5.02-1.7,6.89-6.46,8.38-.8.25-1.63.41-2.44.65-.52.15-1.01.38-1.61.61.06.86.11,1.59.17,2.41h36.35v-2.76c-.98-.1-1.75-.16-2.5-.27-5.17-.77-9.05-3.55-8.98-9.74.05-4.22-.25-8.43-.31-12.65-.06-3.78-.01-7.57-.01-11.65,1.12-.05,1.88-.07,2.64-.12,5.11-.37,10.24-.58,15.32-1.17,5.85-.68,11.19-2.84,15.6-6.84,6.69-6.06,9.24-13.69,8.24-22.62ZM115.53,224.26c-2.99,3.69-7.17,5.69-11.76,6.5-3.36.59-6.82.62-10.17.89-1.03-2.95-.27-43.61.85-46.54.56-.14,1.23-.48,1.89-.45,3.15.13,6.35.04,9.42.61,6.44,1.2,10.9,5.33,13.41,11.13,4.29,9.89,3.23,19.37-3.65,27.86Z"/><path class="b" d="M472.6,295.39c-.19-3.86-3.09-7.18-7.37-7.73-3.53-.46-7.13-.31-10.7-.38-.5,0-1,.29-1.8.53.83.54,1.38.89,1.91,1.23v14.51c-.76.39-1.36.7-1.96,1.01.03.16.05.32.08.48.53.07,1.05.2,1.58.21,2.32.04,4.64.16,6.95.04,1.66-.08,3.37-.31,4.96-.79,4.14-1.26,6.58-4.88,6.36-9.11ZM464.85,303.61c-1.63.47-3.46.35-5.2.32-1.09-.02-1.86-.81-1.97-1.89-.49-4.4-.13-8.79-.21-13.41,2.8-.33,5.09-.46,7.34.37,3.19,1.19,4.58,3.72,4.63,6.89.05,3.39-.96,6.67-4.58,7.72Z"/><path class="b" d="M398.88,288.38c-3.01-1.78-6.23-2.08-9.54-.98-6.48,2.15-8.86,9.51-4.68,14.58,2.05,2.49,4.82,3.55,8.04,3.37.7,0,1.41.06,2.11,0,3.66-.34,7.25-3.29,7.98-6.86.8-3.94-.11-7.86-3.9-10.1ZM390.6,303.91c-2.02-.81-3.31-2.36-4.08-4.31-.92-2.35-1.07-4.75-.24-7.2,1.53-4.56,7.58-6.05,11-2.64,1.95,1.95,2.69,4.39,2.64,7.21.27,6.21-5.17,8.61-9.32,6.95Z"/><path class="b" d="M489.89,303.45c-2.03-5.41-4.12-10.96-6.41-17.04-.89,1.09-1.61,1.67-1.94,2.42-1.65,3.87-3.19,7.79-4.8,11.68-.45,1.09-.99,2.15-1.41,3.07-.83.41-1.44.71-2.13,1.05,1.69.89,5.52.89,5.75,0-.44-.25-.91-.52-1.62-.93.65-1.84,1.28-3.64,1.87-5.31h5.96c.62,1.79,1.21,3.48,1.77,5.07-.65.55-1.09.91-1.61,1.35,2.17.71,5.48.6,6.88-.24-.75-.36-1.42-.68-2.31-1.11ZM479.88,296.67c.76-1.93,1.46-3.69,2.16-5.46.2,0,.4-.02.61-.02.59,1.74,1.19,3.47,1.87,5.48h-4.63Z"/><path class="b" d="M358.05,303.67c-1.08-1.56-.41-3.11-.38-4.62.04-1.66.39-3.49-1.35-4.59-1.82-1.15-3.53-.26-5.16.59-.6.32-1.12.84-1.59,1.34-.2.21-.19.62-.29.99,1.91.9,2.12-.81,2.88-1.74,2.69-.71,3.49.38,2.68,3.63-1.24.45-2.56.89-3.86,1.4-1.58.62-2.11,1.4-1.88,2.62.26,1.38,1.31,2.18,2.98,2.03,1.02-.09,2.02-.49,3.02-.75,2.53,1.18,3.24,1.12,4.59-.45-.59-.16-1.17-.32-1.65-.45ZM351.5,302.6c.47-1.63,1.8-1.78,3.47-1.86.04.8.08,1.51.12,2.23-2.12,1.36-2.41,1.32-3.59-.37Z"/><path class="b" d="M248.34,298.2h7.32c.22-2.12-.41-3.25-1.89-3.84-2.27-.91-4.95-.21-6.48,1.67-1.76,2.19-1.94,5.05-.44,7.24,1.28,1.87,4.02,2.7,6.43,1.84,1.14-.41,2.26-.96,2.61-2.53-5.08,1.9-7.79.38-7.55-4.38ZM251.96,295.2c.92.08.93.13,1.25,1.54-1.4.8-2.88.44-4.64.36.8-1.76,2.02-2.01,3.4-1.9Z"/><path class="b" d="M295.88,302.55c-1.2-1.06-1.81-2.44-1.12-4.38h7.01c.43-2.03-.09-3.05-1.68-3.75-3.84-1.68-7.99,1.41-7.9,5.89.05,2.29,1.17,4.17,3.17,4.74,2.15.62,4.34.69,6.08-1.12.27-.28.34-.75.72-1.62-2.42,1.53-4.43,1.87-6.27.24ZM297.76,295.16c.98.02,1.77.29,1.88,1.56-1.49.85-3,.4-4.76.41.63-1.59,1.61-2,2.88-1.97Z"/></svg>